<svg xmlns="http://www.w3.org/2000/svg" viewBox="0 0 64 64">
  <defs>
    <linearGradient id="gold" x1="14" y1="8" x2="50" y2="56" gradientUnits="userSpaceOnUse">
      <stop offset="0" stop-color="#fff0a8"/>
      <stop offset="0.42" stop-color="#ffb02e"/>
      <stop offset="1" stop-color="#f26716"/>
    </linearGradient>
    <linearGradient id="rim" x1="8" y1="8" x2="56" y2="56" gradientUnits="userSpaceOnUse">
      <stop offset="0" stop-color="#ffe58a"/>
      <stop offset="1" stop-color="#e95b12"/>
    </linearGradient>
  </defs>
  <rect width="64" height="64" rx="14" fill="#070a0a"/>
  <circle cx="32" cy="32" r="28" fill="#111714" stroke="url(#rim)" stroke-width="4"/>
  <circle cx="32" cy="32" r="22" fill="#070a0a" stroke="#5a3a12" stroke-width="1.5"/>
  <path d="M18 46c6.2-8.4 10-19.2 10.8-31.5h9.4C39 26.8 42.8 37.6 49 46l-8.4 3.8c-3.8-5.5-6.8-12.1-8.6-19.3-1.8 7.2-4.8 13.8-8.6 19.3L18 46Z" fill="url(#gold)" stroke="#ffd36e" stroke-width="1.4" stroke-linejoin="round"/>
  <path d="M32 14.5v33" stroke="#fff1a6" stroke-width="2" stroke-linecap="round" opacity=".9"/>
  <path d="M32 20l2.2 4.6 5 .7-3.6 3.5.9 5-4.5-2.4-4.5 2.4.9-5-3.6-3.5 5-.7L32 20Z" fill="#fff7bd"/>
  <path d="M12 32c5.6-2.2 8.9-2.2 14.5 0M37.5 32c5.6-2.2 8.9-2.2 14.5 0" fill="none" stroke="#ffbc37" stroke-width="2" stroke-linecap="round" opacity=".75"/>
</svg>
