<svg xmlns="http://www.w3.org/2000/svg" width="1200" height="720" viewBox="0 0 1200 720">

  <defs>
    <linearGradient id="cover-vampire-bg" x1="0" x2="1" y1="0" y2="1">
      <stop offset="0" stop-color="#100711"/>
      <stop offset="0.45" stop-color="#07111f"/>
      <stop offset="1" stop-color="#100711"/>
    </linearGradient>
    <radialGradient id="cover-vampire-glow" cx="50%" cy="48%" r="58%">
      <stop offset="0" stop-color="#fb7185" stop-opacity="0.92"/>
      <stop offset="0.38" stop-color="#ef4444" stop-opacity="0.36"/>
      <stop offset="1" stop-color="#000000" stop-opacity="0"/>
    </radialGradient>
    <linearGradient id="cover-vampire-gold" x1="0" x2="1" y1="0" y2="1">
      <stop offset="0" stop-color="#fff3a7"/>
      <stop offset="0.36" stop-color="#fb7185"/>
      <stop offset="0.72" stop-color="#9a6416"/>
      <stop offset="1" stop-color="#fff1a1"/>
    </linearGradient>
    <filter id="cover-vampire-soft" x="-30%" y="-30%" width="160%" height="160%">
      <feGaussianBlur stdDeviation="12"/>
    </filter>
    <filter id="cover-vampire-shadow" x="-40%" y="-40%" width="180%" height="180%">
      <feDropShadow dx="0" dy="18" stdDeviation="18" flood-color="#000" flood-opacity="0.55"/>
      <feDropShadow dx="0" dy="0" stdDeviation="8" flood-color="#fb7185" flood-opacity="0.52"/>
    </filter>
  </defs>

    <rect x="0" y="0" width="1200" height="720" fill="url(#cover-vampire-bg)"/>
    <ellipse cx="600" cy="330" rx="420" ry="245" fill="url(#cover-vampire-glow)" filter="url(#cover-vampire-soft)" opacity="0.82"/>
    <path d="M0 500 C230 410 390 485 600 430 C820 372 995 420 1200 335 L1200 720 L0 720 Z" fill="#020617" opacity="0.7"/>
    <rect x="145" y="130" width="18" height="440" rx="9" fill="#a78bfa" opacity="0.09"/>
      <circle cx="154" cy="155" r="15" fill="#fb7185" opacity="0.42"/>
      <circle cx="154" cy="515" r="9" fill="#a78bfa" opacity="0.52"/>
<rect x="257" y="130" width="18" height="440" rx="9" fill="#a78bfa" opacity="0.13"/>
      <circle cx="266" cy="155" r="15" fill="#fb7185" opacity="0.42"/>
      <circle cx="266" cy="515" r="9" fill="#a78bfa" opacity="0.52"/>
<rect x="369" y="130" width="18" height="440" rx="9" fill="#a78bfa" opacity="0.16999999999999998"/>
      <circle cx="378" cy="155" r="15" fill="#fb7185" opacity="0.42"/>
      <circle cx="378" cy="515" r="9" fill="#a78bfa" opacity="0.52"/>
<rect x="481" y="130" width="18" height="440" rx="9" fill="#a78bfa" opacity="0.09"/>
      <circle cx="490" cy="155" r="15" fill="#fb7185" opacity="0.42"/>
      <circle cx="490" cy="515" r="9" fill="#a78bfa" opacity="0.52"/>
<rect x="593" y="130" width="18" height="440" rx="9" fill="#a78bfa" opacity="0.13"/>
      <circle cx="602" cy="155" r="15" fill="#fb7185" opacity="0.42"/>
      <circle cx="602" cy="515" r="9" fill="#a78bfa" opacity="0.52"/>
<rect x="705" y="130" width="18" height="440" rx="9" fill="#a78bfa" opacity="0.16999999999999998"/>
      <circle cx="714" cy="155" r="15" fill="#fb7185" opacity="0.42"/>
      <circle cx="714" cy="515" r="9" fill="#a78bfa" opacity="0.52"/>
<rect x="817" y="130" width="18" height="440" rx="9" fill="#a78bfa" opacity="0.09"/>
      <circle cx="826" cy="155" r="15" fill="#fb7185" opacity="0.42"/>
      <circle cx="826" cy="515" r="9" fill="#a78bfa" opacity="0.52"/>
<rect x="929" y="130" width="18" height="440" rx="9" fill="#a78bfa" opacity="0.13"/>
      <circle cx="938" cy="155" r="15" fill="#fb7185" opacity="0.42"/>
      <circle cx="938" cy="515" r="9" fill="#a78bfa" opacity="0.52"/>
<rect x="1041" y="130" width="18" height="440" rx="9" fill="#a78bfa" opacity="0.16999999999999998"/>
      <circle cx="1050" cy="155" r="15" fill="#fb7185" opacity="0.42"/>
      <circle cx="1050" cy="515" r="9" fill="#a78bfa" opacity="0.52"/>
    <ellipse cx="55" cy="605" rx="13.6" ry="8" fill="url(#cover-vampire-gold)" opacity="0.25"/>
<ellipse cx="152" cy="624" rx="15.299999999999999" ry="9" fill="url(#cover-vampire-gold)" opacity="0.33"/>
<ellipse cx="249" cy="643" rx="17" ry="10" fill="url(#cover-vampire-gold)" opacity="0.41000000000000003"/>
<ellipse cx="346" cy="610" rx="18.7" ry="11" fill="url(#cover-vampire-gold)" opacity="0.49"/>
<ellipse cx="443" cy="629" rx="20.4" ry="12" fill="url(#cover-vampire-gold)" opacity="0.25"/>
<ellipse cx="540" cy="648" rx="13.6" ry="8" fill="url(#cover-vampire-gold)" opacity="0.33"/>
<ellipse cx="637" cy="615" rx="15.299999999999999" ry="9" fill="url(#cover-vampire-gold)" opacity="0.41000000000000003"/>
<ellipse cx="734" cy="634" rx="17" ry="10" fill="url(#cover-vampire-gold)" opacity="0.49"/>
<ellipse cx="831" cy="653" rx="18.7" ry="11" fill="url(#cover-vampire-gold)" opacity="0.25"/>
<ellipse cx="928" cy="620" rx="20.4" ry="12" fill="url(#cover-vampire-gold)" opacity="0.33"/>
<ellipse cx="1025" cy="639" rx="13.6" ry="8" fill="url(#cover-vampire-gold)" opacity="0.41000000000000003"/>
<ellipse cx="1122" cy="606" rx="15.299999999999999" ry="9" fill="url(#cover-vampire-gold)" opacity="0.49"/>
<ellipse cx="129" cy="625" rx="17" ry="10" fill="url(#cover-vampire-gold)" opacity="0.25"/>
<ellipse cx="226" cy="644" rx="18.7" ry="11" fill="url(#cover-vampire-gold)" opacity="0.33"/>
<ellipse cx="323" cy="611" rx="20.4" ry="12" fill="url(#cover-vampire-gold)" opacity="0.41000000000000003"/>
<ellipse cx="420" cy="630" rx="13.6" ry="8" fill="url(#cover-vampire-gold)" opacity="0.49"/>
<ellipse cx="517" cy="649" rx="15.299999999999999" ry="9" fill="url(#cover-vampire-gold)" opacity="0.25"/>
<ellipse cx="614" cy="616" rx="17" ry="10" fill="url(#cover-vampire-gold)" opacity="0.33"/>
<ellipse cx="711" cy="635" rx="18.7" ry="11" fill="url(#cover-vampire-gold)" opacity="0.41000000000000003"/>
<ellipse cx="808" cy="654" rx="20.4" ry="12" fill="url(#cover-vampire-gold)" opacity="0.49"/>
<ellipse cx="905" cy="621" rx="13.6" ry="8" fill="url(#cover-vampire-gold)" opacity="0.25"/>
<ellipse cx="1002" cy="640" rx="15.299999999999999" ry="9" fill="url(#cover-vampire-gold)" opacity="0.33"/>
    <rect x="60" y="82" width="1080" height="535" rx="34" fill="none" stroke="#fb7185" stroke-opacity="0.35" stroke-width="4"/>
    <rect x="82" y="104" width="1036" height="491" rx="28" fill="none" stroke="#ffffff" stroke-opacity="0.08" stroke-width="2"/>

<g filter="url(#cover-vampire-shadow)">
  <rect x="208" y="180" width="784" height="320" rx="34" fill="#08111f" stroke="url(#cover-vampire-gold)" stroke-width="5"/>
  <rect x="235" y="208" width="120" height="264" rx="24" fill="#0b1628" stroke="#fb7185" stroke-opacity="0.42" stroke-width="4"/>
  <rect x="385" y="208" width="120" height="264" rx="24" fill="#0b1628" stroke="#fb7185" stroke-opacity="0.42" stroke-width="4"/>
  <rect x="535" y="208" width="120" height="264" rx="24" fill="#0b1628" stroke="#fb7185" stroke-opacity="0.42" stroke-width="4"/>
  <rect x="685" y="208" width="120" height="264" rx="24" fill="#0b1628" stroke="#fb7185" stroke-opacity="0.42" stroke-width="4"/>
  <rect x="835" y="208" width="120" height="264" rx="24" fill="#0b1628" stroke="#fb7185" stroke-opacity="0.42" stroke-width="4"/>
  <g filter="url(#cover-vampire-shadow)"><circle cx="295" cy="275.4" r="19.2" fill="#ef4444" stroke="#fb7185" stroke-width="7"/><path d="M295 294.6 L295 326.6" stroke="#a78bfa" stroke-width="8"/><path d="M295 305 C272.6 297.8 269.4 317 287 318.6" fill="none" stroke="#a78bfa" stroke-width="6"/></g>
  <g filter="url(#cover-vampire-shadow)"><rect x="432.2" y="278.6" width="25.6" height="43.2" rx="6.4" fill="#fff7d6" stroke="#fb7185" stroke-width="6"/><path d="M445 243.4 C464.2 265.8 447.4 278.6 445 283.4 C430.6 270.6 441 257.8 445 243.4 Z" fill="#fb7185"/></g>
  <g filter="url(#cover-vampire-shadow)"><path d="M556.6 291.4 C588.6 249.8 625.4 265.8 633.4 293 C606.2 283.4 587 291.4 566.2 315.4" fill="#a78bfa" opacity=".38" stroke="#fb7185" stroke-width="7"/><circle cx="611" cy="277" r="4" fill="#fff"/></g>
  <g filter="url(#cover-vampire-shadow)"><path d="M717.8 251.4 H772.2 C767.4 286.6 753 301 745 302.6 C737 301 722.6 286.6 717.8 251.4 Z" fill="#ef4444" opacity=".3" stroke="#fb7185" stroke-width="7"/><path d="M745 302.6 V323.4 M727.4 325 H762.6" stroke="#fff" stroke-width="6"/></g>
  <g filter="url(#cover-vampire-shadow)"><path d="M909.4 246.6 C872.6 257.8 869.4 307.4 903 323.4 C856.6 325 848.6 257.8 909.4 246.6 Z" fill="#fb7185" opacity=".75"/></g>
  <g filter="url(#cover-vampire-shadow)"><path d="M261.4 437.8 V381.8 H277.4 V365.8 H293.4 V385 H309.4 V365.8 H325.4 V437.8 Z" fill="#a78bfa" opacity=".34" stroke="#fb7185" stroke-width="7"/><rect x="288.6" y="409" width="12.8" height="28.799999999999997" rx="5.6000000000000005" fill="#020617"/></g>
</g>
<g>
  <text x="90" y="118" font-family="Inter, Arial, sans-serif" font-size="32" font-weight="800" letter-spacing="10" fill="#fb7185" opacity="0.9">MEGA 6x5</text>
  <text x="90" y="168" font-family="Inter, Arial, sans-serif" font-size="58" font-weight="900" fill="#fff" letter-spacing="3">VAMPIRE CASTLE</text>
  <text x="92" y="220" font-family="Inter, Arial, sans-serif" font-size="26" font-weight="700" fill="#cbd5e1">WAYS • SMALL PAYS • BIG WIN</text>
</g>
<g transform="translate(926 96)">
  <rect width="190" height="70" rx="35" fill="#111827" stroke="#fb7185" stroke-opacity="0.6" stroke-width="3"/>
  <text x="95" y="45" text-anchor="middle" font-family="Inter, Arial, sans-serif" font-size="27" font-weight="900" fill="#fb7185">NEW</text>
</g>
</svg>