<?xml version="1.0" encoding="utf-8"?>
<!-- Generator: Adobe Illustrator 22.1.0, SVG Export Plug-In . SVG Version: 6.00 Build 0)  -->
<svg version="1.1" id="圖層_1" xmlns="http://www.w3.org/2000/svg" xmlns:xlink="http://www.w3.org/1999/xlink" x="0px" y="0px"
	 viewBox="0 0 82 82" style="enable-background:new 0 0 82 82;" xml:space="preserve">
<style type="text/css">
	.st0{fill:#D9D9D9;}
</style>
<g transform="rotate(0 50 50)">
	<path class="st0" d="M41,2L41,2c2.5,0,4.5,4,4.5,9l0,0c0,5-2,9-4.5,9l0,0c-2.5,0-4.5-4-4.5-9l0,0C36.5,6,38.5,2,41,2z	">
<animate  accumulate="none" additive="replace" attributeName="opacity" begin="-0.9166666666666666s" calcMode="linear" dur="1s" fill="remove" keyTimes="0;1" repeatCount="indefinite" restart="always" values="1;0">
			</animate>
	</path>
</g>
<g transform="rotate(30 50 50)">
	<path class="st0" d="M37.7,7.7L37.7,7.7c2.5,0,4.5,4,4.5,9l0,0c0,5-2,9-4.5,9l0,0c-2.5,0-4.5-4-4.5-9l0,0
		C33.2,11.7,35.2,7.7,37.7,7.7z	">
<animate  accumulate="none" additive="replace" attributeName="opacity" begin="-0.8333333333333334s" calcMode="linear" dur="1s" fill="remove" keyTimes="0;1" repeatCount="indefinite" restart="always" values="1;0">
			</animate>
	</path>
</g>
<g transform="rotate(60 50 50)">
	<path class="st0" d="M37.7,14.3L37.7,14.3c2.5,0,4.5,4,4.5,9l0,0c0,5-2,9-4.5,9l0,0c-2.5,0-4.5-4-4.5-9l0,0
		C33.2,18.3,35.2,14.3,37.7,14.3z	">
<animate  accumulate="none" additive="replace" attributeName="opacity" begin="-0.75s" calcMode="linear" dur="1s" fill="remove" keyTimes="0;1" repeatCount="indefinite" restart="always" values="1;0">
			</animate>
	</path>
</g>
<g transform="rotate(90 50 50)">
	<path class="st0" d="M41,20L41,20c2.5,0,4.5,4,4.5,9l0,0c0,5-2,9-4.5,9l0,0c-2.5,0-4.5-4-4.5-9l0,0C36.5,24,38.5,20,41,20z	">
<animate  accumulate="none" additive="replace" attributeName="opacity" begin="-0.6666666666666666s" calcMode="linear" dur="1s" fill="remove" keyTimes="0;1" repeatCount="indefinite" restart="always" values="1;0">
			</animate>
	</path>
</g>
<g transform="rotate(120 50 50)">
	<path class="st0" d="M46.7,23.3L46.7,23.3c2.5,0,4.5,4,4.5,9l0,0c0,5-2,9-4.5,9l0,0c-2.5,0-4.5-4-4.5-9l0,0
		C42.2,27.3,44.2,23.3,46.7,23.3z	">
<animate  accumulate="none" additive="replace" attributeName="opacity" begin="-0.5833333333333334s" calcMode="linear" dur="1s" fill="remove" keyTimes="0;1" repeatCount="indefinite" restart="always" values="1;0">
			</animate>
	</path>
</g>
<g transform="rotate(150 50 50)">
	<path class="st0" d="M53.3,23.3L53.3,23.3c2.5,0,4.5,4,4.5,9l0,0c0,5-2,9-4.5,9l0,0c-2.5,0-4.5-4-4.5-9l0,0
		C48.8,27.3,50.8,23.3,53.3,23.3z	">
<animate  accumulate="none" additive="replace" attributeName="opacity" begin="-0.5s" calcMode="linear" dur="1s" fill="remove" keyTimes="0;1" repeatCount="indefinite" restart="always" values="1;0">
			</animate>
	</path>
</g>
<g transform="rotate(180 50 50)">
	<path class="st0" d="M59,20L59,20c2.5,0,4.5,4,4.5,9l0,0c0,5-2,9-4.5,9l0,0c-2.5,0-4.5-4-4.5-9l0,0C54.5,24,56.5,20,59,20z	">
<animate  accumulate="none" additive="replace" attributeName="opacity" begin="-0.4166666666666667s" calcMode="linear" dur="1s" fill="remove" keyTimes="0;1" repeatCount="indefinite" restart="always" values="1;0">
			</animate>
	</path>
</g>
<g transform="rotate(210 50 50)">
	<path class="st0" d="M62.3,14.3L62.3,14.3c2.5,0,4.5,4,4.5,9l0,0c0,5-2,9-4.5,9l0,0c-2.5,0-4.5-4-4.5-9l0,0
		C57.8,18.3,59.8,14.3,62.3,14.3z	">
<animate  accumulate="none" additive="replace" attributeName="opacity" begin="-0.3333333333333333s" calcMode="linear" dur="1s" fill="remove" keyTimes="0;1" repeatCount="indefinite" restart="always" values="1;0">
			</animate>
	</path>
</g>
<g transform="rotate(240 50 50)">
	<path class="st0" d="M62.3,7.7L62.3,7.7c2.5,0,4.5,4,4.5,9l0,0c0,5-2,9-4.5,9l0,0c-2.5,0-4.5-4-4.5-9l0,0
		C57.8,11.7,59.8,7.7,62.3,7.7z	">
<animate  accumulate="none" additive="replace" attributeName="opacity" begin="-0.25s" calcMode="linear" dur="1s" fill="remove" keyTimes="0;1" repeatCount="indefinite" restart="always" values="1;0">
			</animate>
	</path>
</g>
<g transform="rotate(270 50 50)">
	<path class="st0" d="M59,2L59,2c2.5,0,4.5,4,4.5,9l0,0c0,5-2,9-4.5,9l0,0c-2.5,0-4.5-4-4.5-9l0,0C54.5,6,56.5,2,59,2z	">
<animate  accumulate="none" additive="replace" attributeName="opacity" begin="-0.16666666666666666s" calcMode="linear" dur="1s" fill="remove" keyTimes="0;1" repeatCount="indefinite" restart="always" values="1;0">
			</animate>
	</path>
</g>
<g transform="rotate(300 50 50)">
	<path class="st0" d="M53.3-1.3L53.3-1.3c2.5,0,4.5,4,4.5,9l0,0c0,5-2,9-4.5,9l0,0c-2.5,0-4.5-4-4.5-9l0,0
		C48.8,2.7,50.8-1.3,53.3-1.3z	">
<animate  accumulate="none" additive="replace" attributeName="opacity" begin="-0.08333333333333333s" calcMode="linear" dur="1s" fill="remove" keyTimes="0;1" repeatCount="indefinite" restart="always" values="1;0">
			</animate>
	</path>
</g>
<g transform="rotate(330 50 50)">
	<path class="st0" d="M46.7-1.3L46.7-1.3c2.5,0,4.5,4,4.5,9l0,0c0,5-2,9-4.5,9l0,0c-2.5,0-4.5-4-4.5-9l0,0
		C42.2,2.7,44.2-1.3,46.7-1.3z	">
<animate  accumulate="none" additive="replace" attributeName="opacity" begin="0s" calcMode="linear" dur="1s" fill="remove" keyTimes="0;1" repeatCount="indefinite" restart="always" values="1;0">
			</animate>
	</path>
</g>
</svg>
