<svg xmlns="http://www.w3.org/2000/svg" width="1200" height="720" viewBox="0 0 1200 720">

  <defs>
    <linearGradient id="cover-jungle-bg" x1="0" x2="1" y1="0" y2="1">
      <stop offset="0" stop-color="#071509"/>
      <stop offset="0.45" stop-color="#07111f"/>
      <stop offset="1" stop-color="#071509"/>
    </linearGradient>
    <radialGradient id="cover-jungle-glow" cx="50%" cy="48%" r="58%">
      <stop offset="0" stop-color="#22c55e" stop-opacity="0.92"/>
      <stop offset="0.38" stop-color="#86efac" stop-opacity="0.36"/>
      <stop offset="1" stop-color="#000000" stop-opacity="0"/>
    </radialGradient>
    <linearGradient id="cover-jungle-gold" x1="0" x2="1" y1="0" y2="1">
      <stop offset="0" stop-color="#fff3a7"/>
      <stop offset="0.36" stop-color="#22c55e"/>
      <stop offset="0.72" stop-color="#9a6416"/>
      <stop offset="1" stop-color="#fff1a1"/>
    </linearGradient>
    <filter id="cover-jungle-soft" x="-30%" y="-30%" width="160%" height="160%">
      <feGaussianBlur stdDeviation="12"/>
    </filter>
    <filter id="cover-jungle-shadow" x="-40%" y="-40%" width="180%" height="180%">
      <feDropShadow dx="0" dy="18" stdDeviation="18" flood-color="#000" flood-opacity="0.55"/>
      <feDropShadow dx="0" dy="0" stdDeviation="8" flood-color="#22c55e" flood-opacity="0.52"/>
    </filter>
  </defs>

    <rect x="0" y="0" width="1200" height="720" fill="url(#cover-jungle-bg)"/>
    <ellipse cx="600" cy="330" rx="420" ry="245" fill="url(#cover-jungle-glow)" filter="url(#cover-jungle-soft)" opacity="0.82"/>
    <path d="M0 500 C230 410 390 485 600 430 C820 372 995 420 1200 335 L1200 720 L0 720 Z" fill="#020617" opacity="0.7"/>
    <rect x="145" y="130" width="18" height="440" rx="9" fill="#facc15" opacity="0.09"/>
      <circle cx="154" cy="155" r="15" fill="#22c55e" opacity="0.42"/>
      <circle cx="154" cy="515" r="9" fill="#facc15" opacity="0.52"/>
<rect x="257" y="130" width="18" height="440" rx="9" fill="#facc15" opacity="0.13"/>
      <circle cx="266" cy="155" r="15" fill="#22c55e" opacity="0.42"/>
      <circle cx="266" cy="515" r="9" fill="#facc15" opacity="0.52"/>
<rect x="369" y="130" width="18" height="440" rx="9" fill="#facc15" opacity="0.16999999999999998"/>
      <circle cx="378" cy="155" r="15" fill="#22c55e" opacity="0.42"/>
      <circle cx="378" cy="515" r="9" fill="#facc15" opacity="0.52"/>
<rect x="481" y="130" width="18" height="440" rx="9" fill="#facc15" opacity="0.09"/>
      <circle cx="490" cy="155" r="15" fill="#22c55e" opacity="0.42"/>
      <circle cx="490" cy="515" r="9" fill="#facc15" opacity="0.52"/>
<rect x="593" y="130" width="18" height="440" rx="9" fill="#facc15" opacity="0.13"/>
      <circle cx="602" cy="155" r="15" fill="#22c55e" opacity="0.42"/>
      <circle cx="602" cy="515" r="9" fill="#facc15" opacity="0.52"/>
<rect x="705" y="130" width="18" height="440" rx="9" fill="#facc15" opacity="0.16999999999999998"/>
      <circle cx="714" cy="155" r="15" fill="#22c55e" opacity="0.42"/>
      <circle cx="714" cy="515" r="9" fill="#facc15" opacity="0.52"/>
<rect x="817" y="130" width="18" height="440" rx="9" fill="#facc15" opacity="0.09"/>
      <circle cx="826" cy="155" r="15" fill="#22c55e" opacity="0.42"/>
      <circle cx="826" cy="515" r="9" fill="#facc15" opacity="0.52"/>
<rect x="929" y="130" width="18" height="440" rx="9" fill="#facc15" opacity="0.13"/>
      <circle cx="938" cy="155" r="15" fill="#22c55e" opacity="0.42"/>
      <circle cx="938" cy="515" r="9" fill="#facc15" opacity="0.52"/>
<rect x="1041" y="130" width="18" height="440" rx="9" fill="#facc15" opacity="0.16999999999999998"/>
      <circle cx="1050" cy="155" r="15" fill="#22c55e" opacity="0.42"/>
      <circle cx="1050" cy="515" r="9" fill="#facc15" opacity="0.52"/>
    <ellipse cx="55" cy="605" rx="13.6" ry="8" fill="url(#cover-jungle-gold)" opacity="0.25"/>
<ellipse cx="152" cy="624" rx="15.299999999999999" ry="9" fill="url(#cover-jungle-gold)" opacity="0.33"/>
<ellipse cx="249" cy="643" rx="17" ry="10" fill="url(#cover-jungle-gold)" opacity="0.41000000000000003"/>
<ellipse cx="346" cy="610" rx="18.7" ry="11" fill="url(#cover-jungle-gold)" opacity="0.49"/>
<ellipse cx="443" cy="629" rx="20.4" ry="12" fill="url(#cover-jungle-gold)" opacity="0.25"/>
<ellipse cx="540" cy="648" rx="13.6" ry="8" fill="url(#cover-jungle-gold)" opacity="0.33"/>
<ellipse cx="637" cy="615" rx="15.299999999999999" ry="9" fill="url(#cover-jungle-gold)" opacity="0.41000000000000003"/>
<ellipse cx="734" cy="634" rx="17" ry="10" fill="url(#cover-jungle-gold)" opacity="0.49"/>
<ellipse cx="831" cy="653" rx="18.7" ry="11" fill="url(#cover-jungle-gold)" opacity="0.25"/>
<ellipse cx="928" cy="620" rx="20.4" ry="12" fill="url(#cover-jungle-gold)" opacity="0.33"/>
<ellipse cx="1025" cy="639" rx="13.6" ry="8" fill="url(#cover-jungle-gold)" opacity="0.41000000000000003"/>
<ellipse cx="1122" cy="606" rx="15.299999999999999" ry="9" fill="url(#cover-jungle-gold)" opacity="0.49"/>
<ellipse cx="129" cy="625" rx="17" ry="10" fill="url(#cover-jungle-gold)" opacity="0.25"/>
<ellipse cx="226" cy="644" rx="18.7" ry="11" fill="url(#cover-jungle-gold)" opacity="0.33"/>
<ellipse cx="323" cy="611" rx="20.4" ry="12" fill="url(#cover-jungle-gold)" opacity="0.41000000000000003"/>
<ellipse cx="420" cy="630" rx="13.6" ry="8" fill="url(#cover-jungle-gold)" opacity="0.49"/>
<ellipse cx="517" cy="649" rx="15.299999999999999" ry="9" fill="url(#cover-jungle-gold)" opacity="0.25"/>
<ellipse cx="614" cy="616" rx="17" ry="10" fill="url(#cover-jungle-gold)" opacity="0.33"/>
<ellipse cx="711" cy="635" rx="18.7" ry="11" fill="url(#cover-jungle-gold)" opacity="0.41000000000000003"/>
<ellipse cx="808" cy="654" rx="20.4" ry="12" fill="url(#cover-jungle-gold)" opacity="0.49"/>
<ellipse cx="905" cy="621" rx="13.6" ry="8" fill="url(#cover-jungle-gold)" opacity="0.25"/>
<ellipse cx="1002" cy="640" rx="15.299999999999999" ry="9" fill="url(#cover-jungle-gold)" opacity="0.33"/>
    <rect x="60" y="82" width="1080" height="535" rx="34" fill="none" stroke="#22c55e" stroke-opacity="0.35" stroke-width="4"/>
    <rect x="82" y="104" width="1036" height="491" rx="28" fill="none" stroke="#ffffff" stroke-opacity="0.08" stroke-width="2"/>

<g filter="url(#cover-jungle-shadow)">
  <rect x="208" y="180" width="784" height="320" rx="34" fill="#08111f" stroke="url(#cover-jungle-gold)" stroke-width="5"/>
  <rect x="235" y="208" width="120" height="264" rx="24" fill="#0b1628" stroke="#22c55e" stroke-opacity="0.42" stroke-width="4"/>
  <rect x="385" y="208" width="120" height="264" rx="24" fill="#0b1628" stroke="#22c55e" stroke-opacity="0.42" stroke-width="4"/>
  <rect x="535" y="208" width="120" height="264" rx="24" fill="#0b1628" stroke="#22c55e" stroke-opacity="0.42" stroke-width="4"/>
  <rect x="685" y="208" width="120" height="264" rx="24" fill="#0b1628" stroke="#22c55e" stroke-opacity="0.42" stroke-width="4"/>
  <rect x="835" y="208" width="120" height="264" rx="24" fill="#0b1628" stroke="#22c55e" stroke-opacity="0.42" stroke-width="4"/>
  <g filter="url(#cover-jungle-shadow)"><path d="M264.6 313 C280.6 251.4 325.4 249.8 330.2 259.4 C312.6 304.2 285.4 321.8 264.6 313 Z" fill="#facc15" opacity=".48" stroke="#22c55e" stroke-width="7"/><path d="M269.4 309 C291.8 288.2 307.8 275.4 323.8 261" stroke="#fff" stroke-width="5"/></g>
  <g filter="url(#cover-jungle-shadow)"><rect x="419.4" y="251.4" width="51.2" height="65.6" rx="11.200000000000001" fill="#22c55e" opacity=".22" stroke="#facc15" stroke-width="7"/><circle cx="434.6" cy="274.6" r="4.8" fill="#fff"/><circle cx="455.4" cy="274.6" r="4.8" fill="#fff"/><path d="M430.6 294.6 Q445 304.2 459.4 294.6" fill="none" stroke="#facc15" stroke-width="6"/></g>
  <g filter="url(#cover-jungle-shadow)"><path d="M561.4 257.8 L628.6 257.8 L615.8 318.6 L595 328.2 L574.2 318.6 Z" fill="#22c55e" opacity=".22" stroke="#facc15" stroke-width="7"/><path d="M575.8 280.2 L591 286.6 M614.2 280.2 L599 286.6" stroke="#fff" stroke-width="6"/></g>
  <g filter="url(#cover-jungle-shadow)"><path d="M711.4 310.6 C737 249.8 770.6 299.4 738.6 286.6 C716.2 278.6 746.6 246.6 773.8 272.2" fill="none" stroke="#22c55e" stroke-width="12"/><circle cx="775.4" cy="272.2" r="7.199999999999999" fill="#facc15"/></g>
  <g filter="url(#cover-jungle-shadow)"><polygon points="895,241.8 925.4,277 909.4,325 880.6,325 864.6,277" fill="#facc15" opacity=".44" stroke="#22c55e" stroke-width="7"/><path d="M895 246.6 L895 320.2" stroke="#fff" stroke-width="4" opacity=".55"/></g>
  <g filter="url(#cover-jungle-shadow)"><polygon points="295,357.8 325.4,393 309.4,441 280.6,441 264.6,393" fill="#facc15" opacity=".44" stroke="#22c55e" stroke-width="7"/><path d="M295 362.6 L295 436.2" stroke="#fff" stroke-width="4" opacity=".55"/></g>
</g>
<g>
  <text x="90" y="118" font-family="Inter, Arial, sans-serif" font-size="32" font-weight="800" letter-spacing="10" fill="#22c55e" opacity="0.9">MEGA 5x6</text>
  <text x="90" y="168" font-family="Inter, Arial, sans-serif" font-size="58" font-weight="900" fill="#fff" letter-spacing="3">JUNGLE RELIC</text>
  <text x="92" y="220" font-family="Inter, Arial, sans-serif" font-size="26" font-weight="700" fill="#cbd5e1">WAYS • SMALL PAYS • BIG WIN</text>
</g>
<g transform="translate(926 96)">
  <rect width="190" height="70" rx="35" fill="#111827" stroke="#22c55e" stroke-opacity="0.6" stroke-width="3"/>
  <text x="95" y="45" text-anchor="middle" font-family="Inter, Arial, sans-serif" font-size="27" font-weight="900" fill="#22c55e">NEW</text>
</g>
</svg>