<svg xmlns="http://www.w3.org/2000/svg" width="900" height="600" viewBox="0 0 900 600">

  <defs>
    <linearGradient id="sym-jungle-bg" x1="0" x2="1" y1="0" y2="1">
      <stop offset="0" stop-color="#071509"/>
      <stop offset="0.45" stop-color="#07111f"/>
      <stop offset="1" stop-color="#071509"/>
    </linearGradient>
    <radialGradient id="sym-jungle-glow" cx="50%" cy="48%" r="58%">
      <stop offset="0" stop-color="#22c55e" stop-opacity="0.92"/>
      <stop offset="0.38" stop-color="#86efac" stop-opacity="0.36"/>
      <stop offset="1" stop-color="#000000" stop-opacity="0"/>
    </radialGradient>
    <linearGradient id="sym-jungle-gold" x1="0" x2="1" y1="0" y2="1">
      <stop offset="0" stop-color="#fff3a7"/>
      <stop offset="0.36" stop-color="#22c55e"/>
      <stop offset="0.72" stop-color="#9a6416"/>
      <stop offset="1" stop-color="#fff1a1"/>
    </linearGradient>
    <filter id="sym-jungle-soft" x="-30%" y="-30%" width="160%" height="160%">
      <feGaussianBlur stdDeviation="12"/>
    </filter>
    <filter id="sym-jungle-shadow" x="-40%" y="-40%" width="180%" height="180%">
      <feDropShadow dx="0" dy="18" stdDeviation="18" flood-color="#000" flood-opacity="0.55"/>
      <feDropShadow dx="0" dy="0" stdDeviation="8" flood-color="#22c55e" flood-opacity="0.52"/>
    </filter>
  </defs>
<rect width="900" height="600" fill="#020617"/>
<g transform="translate(0 0)">
      <rect x="10" y="10" width="280" height="280" rx="38" fill="#07111f" stroke="url(#sym-jungle-gold)" stroke-width="7"/>
      <rect x="24" y="24" width="252" height="252" rx="30" fill="#101a2c" stroke="#22c55e" stroke-opacity="0.45" stroke-width="4"/>
      <ellipse cx="150" cy="126" rx="92" ry="72" fill="#86efac" opacity="0.18" filter="url(#sym-jungle-soft)"/>
      <g filter="url(#sym-jungle-shadow)"><path d="M107.44 171.2 C129.84 84.96000000000001 192.56 82.72 199.28 96.16 C174.64 158.88 136.56 183.52 107.44 171.2 Z" fill="#facc15" opacity=".48" stroke="#22c55e" stroke-width="7"/><path d="M114.16 165.6 C145.52 136.48 167.92000000000002 118.56 190.32 98.4" stroke="#fff" stroke-width="5"/></g>
      <text x="150" y="248" text-anchor="middle" font-family="Inter, Arial, sans-serif" font-size="28" font-weight="900" letter-spacing="2" fill="#fff">LEAF</text>
    </g>
<g transform="translate(300 0)">
      <rect x="10" y="10" width="280" height="280" rx="38" fill="#07111f" stroke="url(#sym-jungle-gold)" stroke-width="7"/>
      <rect x="24" y="24" width="252" height="252" rx="30" fill="#101a2c" stroke="#facc15" stroke-opacity="0.45" stroke-width="4"/>
      <ellipse cx="150" cy="126" rx="92" ry="72" fill="#86efac" opacity="0.18" filter="url(#sym-jungle-soft)"/>
      <g filter="url(#sym-jungle-shadow)"><rect x="114.16" y="84.96000000000001" width="71.68" height="91.83999999999999" rx="15.680000000000001" fill="#22c55e" opacity=".22" stroke="#facc15" stroke-width="7"/><circle cx="135.44" cy="117.44" r="6.72" fill="#fff"/><circle cx="164.56" cy="117.44" r="6.72" fill="#fff"/><path d="M129.84 145.44 Q150 158.88 170.16 145.44" fill="none" stroke="#facc15" stroke-width="6"/></g>
      <text x="150" y="248" text-anchor="middle" font-family="Inter, Arial, sans-serif" font-size="28" font-weight="900" letter-spacing="2" fill="#fff">IDOL</text>
    </g>
<g transform="translate(600 0)">
      <rect x="10" y="10" width="280" height="280" rx="38" fill="#07111f" stroke="url(#sym-jungle-gold)" stroke-width="7"/>
      <rect x="24" y="24" width="252" height="252" rx="30" fill="#101a2c" stroke="#22c55e" stroke-opacity="0.45" stroke-width="4"/>
      <ellipse cx="150" cy="126" rx="92" ry="72" fill="#86efac" opacity="0.18" filter="url(#sym-jungle-soft)"/>
      <g filter="url(#sym-jungle-shadow)"><path d="M102.96000000000001 93.91999999999999 L197.04 93.91999999999999 L179.12 179.04 L150 192.48000000000002 L120.88 179.04 Z" fill="#22c55e" opacity=".22" stroke="#facc15" stroke-width="7"/><path d="M123.12 125.28 L144.4 134.24 M176.88 125.28 L155.6 134.24" stroke="#fff" stroke-width="6"/></g>
      <text x="150" y="248" text-anchor="middle" font-family="Inter, Arial, sans-serif" font-size="28" font-weight="900" letter-spacing="2" fill="#fff">MASK</text>
    </g>
<g transform="translate(0 300)">
      <rect x="10" y="10" width="280" height="280" rx="38" fill="#07111f" stroke="url(#sym-jungle-gold)" stroke-width="7"/>
      <rect x="24" y="24" width="252" height="252" rx="30" fill="#101a2c" stroke="#facc15" stroke-opacity="0.45" stroke-width="4"/>
      <ellipse cx="150" cy="126" rx="92" ry="72" fill="#86efac" opacity="0.18" filter="url(#sym-jungle-soft)"/>
      <g filter="url(#sym-jungle-shadow)"><path d="M102.96000000000001 167.84 C138.8 82.72 185.84 152.16 141.04 134.24 C109.68 123.03999999999999 152.24 78.24000000000001 190.32 114.08" fill="none" stroke="#22c55e" stroke-width="12"/><circle cx="192.56" cy="114.08" r="10.08" fill="#facc15"/></g>
      <text x="150" y="248" text-anchor="middle" font-family="Inter, Arial, sans-serif" font-size="28" font-weight="900" letter-spacing="2" fill="#fff">SERPENT</text>
    </g>
<g transform="translate(300 300)">
      <rect x="10" y="10" width="280" height="280" rx="38" fill="#07111f" stroke="url(#sym-jungle-gold)" stroke-width="7"/>
      <rect x="24" y="24" width="252" height="252" rx="30" fill="#101a2c" stroke="#22c55e" stroke-opacity="0.45" stroke-width="4"/>
      <ellipse cx="150" cy="126" rx="92" ry="72" fill="#86efac" opacity="0.18" filter="url(#sym-jungle-soft)"/>
      <g filter="url(#sym-jungle-shadow)"><polygon points="150,71.52 192.56,120.8 170.16,188 129.84,188 107.44,120.8" fill="#facc15" opacity=".44" stroke="#22c55e" stroke-width="7"/><path d="M150 78.24000000000001 L150 181.28" stroke="#fff" stroke-width="4" opacity=".55"/></g>
      <text x="150" y="248" text-anchor="middle" font-family="Inter, Arial, sans-serif" font-size="28" font-weight="900" letter-spacing="2" fill="#fff">EMERALD</text>
    </g>
<g transform="translate(600 300)">
      <rect x="10" y="10" width="280" height="280" rx="38" fill="#07111f" stroke="url(#sym-jungle-gold)" stroke-width="7"/>
      <rect x="24" y="24" width="252" height="252" rx="30" fill="#101a2c" stroke="#facc15" stroke-opacity="0.45" stroke-width="4"/>
      <ellipse cx="150" cy="126" rx="92" ry="72" fill="#86efac" opacity="0.18" filter="url(#sym-jungle-soft)"/>
      <g filter="url(#sym-jungle-shadow)"><polygon points="150,71.52 192.56,120.8 170.16,188 129.84,188 107.44,120.8" fill="#facc15" opacity=".44" stroke="#22c55e" stroke-width="7"/><path d="M150 78.24000000000001 L150 181.28" stroke="#fff" stroke-width="4" opacity=".55"/></g>
      <text x="150" y="248" text-anchor="middle" font-family="Inter, Arial, sans-serif" font-size="28" font-weight="900" letter-spacing="2" fill="#fff">RELIC</text>
    </g>
</svg>